# xmcd
#
# Track frame offsets:
# 150
# 18170
# 34491
# 51665
# 77989
# 99571
# 121113
# 128573
# 153086
# 173207
# 193388
#
# Disc length: 2818 seconds
#
# Revision: 1
# Processed by: cddbd v1.5.2PL0 Copyright (c) Steve Scherf et al.
# Submitted via: CedeCatalogueitor 2.6.0.6 http://personales.ya.com/cdcatalogueitor
#
DISCID=900b000b
DTITLE=Cuchillo - Cuchillo
DYEAR=1900
DGENRE=
TTITLE0=Come With Me
TTITLE1=Summertime In Sweeden
TTITLE2=It Will Be Ok
TTITLE3=Estricta Libertad
TTITLE4=Breathing Again
TTITLE5=The House
TTITLE6=Grauen
TTITLE7=Cuando Te Canto
TTITLE8=To Come Back
TTITLE9=Behind
TTITLE10=Black And White Numbers
EXTD=
EXTT0=
EXTT1=
EXTT2=
EXTT3=
EXTT4=
EXTT5=
EXTT6=
EXTT7=
EXTT8=
EXTT9=
EXTT10=
PLAYORDER=
